<svg width="19" height="18" viewBox="0 0 19 18" fill="none" xmlns="http://www.w3.org/2000/svg">
<path d="M18 13H8C7.44772 13 7 13.4477 7 14C7 14.5523 7.44771 15 8 15H18C18.5523 15 19 14.5523 19 14C19 13.4477 18.5523 13 18 13Z" fill="#444444"/>
<path d="M18 8H8C7.44772 8 7 8.44772 7 9C7 9.55228 7.44771 10 8 10H18C18.5523 10 19 9.55228 19 9C19 8.44772 18.5523 8 18 8Z" fill="#444444"/>
<path d="M18 3H8C7.44772 3 7 3.44772 7 4C7 4.55228 7.44772 5 8 5H18C18.5523 5 19 4.55228 19 4C19 3.44772 18.5523 3 18 3Z" fill="#444444"/>
<path d="M1.29499 14.0649V14.1428H0L2.56403 17.961L5.12805 14.1428H3.85901V14.0649V3.97399V3.89606H5.12805L2.56403 0.0778809L0 3.89606H1.29499V3.97399V14.0649Z" fill="#444444"/>
</svg>
